<svg width="667" height="138" viewBox="0 0 667 138" fill="none" xmlns="http://www.w3.org/2000/svg">
<path d="M52.2 91.7894C47.9312 91.7894 44.2251 95.022 42.2125 99.7711C41.2149 102.126 40.6 104.839 40.6 107.753C40.6 116.549 45.8026 123.716 52.2 123.716C58.5974 123.716 63.8 116.549 63.8 107.753C63.8 104.839 63.1909 102.126 62.1875 99.7711C60.1749 95.022 56.4746 91.7894 52.2 91.7894Z" fill="#3B3C98"/>
<path d="M133.4 91.7894C129.131 91.7894 125.425 95.022 123.412 99.7711C122.415 102.126 121.8 104.839 121.8 107.753C121.8 116.549 127.003 123.716 133.4 123.716C139.797 123.716 145 116.549 145 107.753C145 104.839 144.391 102.126 143.388 99.7711C141.375 95.022 137.675 91.7894 133.4 91.7894Z" fill="#3B3C98"/>
<path d="M168.2 75.826V67.8443L133.4 54.1558L92.8 19.9542H29V27.9359H63.8V35.9176H0V43.8993H69.6V51.881H11.6V59.8627H40.6V67.8443H29V75.826H5.8V83.8077H34.8V91.7894H29V99.7711H11.6V107.753H34.8C34.8 104.943 35.2176 102.277 35.8672 99.7711C38.2684 90.4964 44.6368 83.8077 52.2 83.8077C59.769 83.8077 66.1317 90.4964 68.5329 99.7711C69.1767 102.277 69.6 104.943 69.6 107.753H116C116 104.943 116.418 102.277 117.067 99.7711C119.468 90.4964 125.837 83.8077 133.4 83.8077C140.969 83.8077 147.332 90.4964 149.733 99.7711C150.377 102.277 150.8 104.943 150.8 107.753H168.2V99.7711H174V75.826H168.2Z" fill="#3B3C98"/>
<path d="M257.208 49.248L251.448 81.024H263.16L257.208 49.248ZM268.344 108L265.272 92.352H249.24L246.168 108H232.44L247.8 40.8H267.192L281.88 108H268.344ZM308.753 107.712C308.049 107.84 306.865 108 305.201 108.192C303.601 108.384 301.873 108.48 300.017 108.48C296.049 108.48 293.297 107.296 291.761 104.928C290.289 102.496 289.553 98.784 289.553 93.792V40.8H302.321V93.312C302.321 94.848 302.513 95.936 302.897 96.576C303.281 97.152 304.081 97.44 305.297 97.44C306.001 97.44 306.673 97.408 307.312 97.344C308.017 97.216 308.497 97.12 308.753 97.056V107.712ZM355.988 80.928C355.988 86.176 355.572 90.592 354.74 94.176C353.972 97.76 352.692 100.64 350.9 102.816C349.172 104.992 346.836 106.56 343.892 107.52C341.012 108.416 337.46 108.864 333.236 108.864C329.78 108.864 326.708 108.704 324.02 108.384C321.396 108.064 319.188 107.776 317.396 107.52V40.8H330.164V62.496C331.508 61.472 333.012 60.672 334.676 60.096C336.404 59.456 338.292 59.136 340.34 59.136C342.964 59.136 345.268 59.52 347.252 60.288C349.236 60.992 350.868 62.176 352.148 63.84C353.428 65.504 354.388 67.744 355.028 70.56C355.668 73.312 355.988 76.768 355.988 80.928ZM336.98 70.08C334.868 70.08 333.204 70.848 331.988 72.384C330.772 73.92 330.164 75.552 330.164 77.28V97.728C330.868 97.792 331.54 97.856 332.18 97.92C332.82 97.92 333.46 97.92 334.1 97.92C335.892 97.92 337.364 97.728 338.516 97.344C339.668 96.896 340.564 96.096 341.204 94.944C341.908 93.728 342.388 92.096 342.644 90.048C342.9 87.936 343.028 85.216 343.028 81.888C343.028 79.456 342.932 77.472 342.74 75.936C342.548 74.4 342.196 73.216 341.684 72.384C341.236 71.488 340.628 70.88 339.86 70.56C339.092 70.24 338.132 70.08 336.98 70.08ZM366.51 51.84V40.8H380.238V51.84H366.51ZM366.99 108V60H379.758V108H366.99ZM392.209 108V60H402.577L403.441 63.744C404.913 62.336 406.609 61.216 408.529 60.384C410.449 59.552 412.593 59.136 414.961 59.136C418.289 59.136 420.945 59.52 422.929 60.288C424.977 61.056 426.545 62.24 427.633 63.84C428.785 65.44 429.553 67.424 429.937 69.792C430.321 72.16 430.513 74.976 430.513 78.24V108H417.745V77.952C417.745 74.752 417.265 72.672 416.305 71.712C415.409 70.688 414.097 70.176 412.369 70.176C409.937 70.176 408.113 70.88 406.897 72.288C405.745 73.696 405.105 75.232 404.977 76.896V108H392.209ZM457.499 52.416V108H444.347V52.416H430.523V40.8H471.323V52.416H457.499ZM472.834 108V60H483.202L484.162 64.32C485.442 62.784 486.914 61.536 488.578 60.576C490.242 59.616 492.098 59.136 494.146 59.136C495.618 59.136 497.09 59.296 498.562 59.616V72.288C497.73 72.096 496.93 71.968 496.162 71.904C495.458 71.776 494.658 71.712 493.762 71.712C492.162 71.712 490.85 72.128 489.826 72.96C488.802 73.728 487.97 74.784 487.33 76.128C486.69 77.408 486.242 78.88 485.986 80.544C485.73 82.208 485.602 83.904 485.602 85.632V108H472.834ZM539.905 108C538.625 108 537.153 107.744 535.489 107.232C533.825 106.72 532.545 105.664 531.649 104.064C530.433 105.536 528.833 106.72 526.849 107.616C524.865 108.448 522.241 108.864 518.977 108.864C516.865 108.864 514.913 108.608 513.121 108.096C511.329 107.584 509.761 106.752 508.417 105.6C507.137 104.384 506.113 102.816 505.345 100.896C504.641 98.912 504.289 96.448 504.289 93.504C504.289 87.68 506.017 83.552 509.473 81.12C512.993 78.688 518.049 77.472 524.641 77.472H528.961V75.456C528.961 73.6 528.481 72.192 527.521 71.232C526.625 70.208 524.961 69.696 522.529 69.696C519.777 69.696 517.217 69.92 514.849 70.368C512.545 70.752 510.177 71.296 507.745 72V61.056C508.641 60.8 509.697 60.576 510.913 60.384C512.129 60.128 513.377 59.904 514.657 59.712C516.001 59.52 517.345 59.392 518.689 59.328C520.097 59.2 521.377 59.136 522.529 59.136C526.625 59.136 529.921 59.488 532.417 60.192C534.913 60.832 536.833 61.856 538.177 63.264C539.585 64.672 540.513 66.464 540.961 68.64C541.473 70.816 541.729 73.376 541.729 76.32V95.328C541.729 96.288 541.985 97.056 542.497 97.632C543.009 98.144 544.001 98.4 545.473 98.4V108H539.905ZM522.625 98.112C523.969 98.112 525.025 97.888 525.793 97.44C526.625 96.928 527.265 96.32 527.713 95.616C528.225 94.912 528.545 94.176 528.673 93.408C528.865 92.576 528.961 91.84 528.961 91.2V86.88H524.161C522.113 86.88 520.449 87.328 519.169 88.224C517.889 89.12 517.249 90.656 517.249 92.832C517.249 94.304 517.633 95.552 518.401 96.576C519.233 97.6 520.641 98.112 522.625 98.112ZM555.053 108V60H565.421L566.285 63.744C567.757 62.336 569.453 61.216 571.373 60.384C573.293 59.552 575.437 59.136 577.805 59.136C581.133 59.136 583.789 59.52 585.773 60.288C587.821 61.056 589.389 62.24 590.477 63.84C591.629 65.44 592.397 67.424 592.781 69.792C593.165 72.16 593.357 74.976 593.357 78.24V108H580.589V77.952C580.589 74.752 580.109 72.672 579.149 71.712C578.253 70.688 576.941 70.176 575.213 70.176C572.781 70.176 570.957 70.88 569.741 72.288C568.589 73.696 567.949 75.232 567.821 76.896V108H555.053ZM636.116 93.504C636.116 96.448 635.636 98.912 634.676 100.896C633.78 102.816 632.468 104.384 630.74 105.6C629.076 106.752 627.06 107.584 624.692 108.096C622.324 108.608 619.7 108.864 616.82 108.864C615.604 108.864 614.356 108.8 613.076 108.672C611.796 108.608 610.548 108.48 609.332 108.288C608.18 108.16 607.092 108.032 606.068 107.904C605.108 107.712 604.308 107.52 603.668 107.328V96.384C604.948 96.704 606.612 97.088 608.66 97.536C610.708 97.92 612.852 98.112 615.092 98.112C617.332 98.112 619.188 97.856 620.66 97.344C622.196 96.832 622.964 95.744 622.964 94.08C622.964 92.608 622.548 91.488 621.716 90.72C620.948 89.952 619.348 89.344 616.916 88.896C611.988 88 608.5 86.336 606.452 83.904C604.468 81.472 603.476 78.208 603.476 74.112C603.476 68.736 605.108 64.896 608.372 62.592C611.636 60.288 616.66 59.136 623.444 59.136C624.404 59.136 625.428 59.2 626.516 59.328C627.604 59.456 628.66 59.616 629.684 59.808C630.708 59.936 631.636 60.096 632.468 60.288C633.364 60.48 634.036 60.64 634.484 60.768V71.712C633.012 71.264 631.38 70.848 629.588 70.464C627.86 70.08 625.684 69.888 623.06 69.888C620.692 69.888 618.996 70.176 617.972 70.752C616.948 71.328 616.436 72.352 616.436 73.824C616.436 74.976 616.948 75.872 617.972 76.512C618.996 77.088 620.564 77.536 622.676 77.856C627.668 78.688 631.156 80.416 633.14 83.04C635.124 85.6 636.116 89.088 636.116 93.504Z" fill="black"/>
</svg>
