<svg width="756" height="138" viewBox="0 0 756 138" fill="none" xmlns="http://www.w3.org/2000/svg">
<path d="M59.1652 91.7894C54.3268 91.7894 50.1262 95.022 47.845 99.7711C46.7143 102.126 46.0174 104.839 46.0174 107.753C46.0174 116.549 51.9142 123.716 59.1652 123.716C66.4163 123.716 72.3131 116.549 72.3131 107.753C72.3131 104.839 71.6227 102.126 70.4854 99.7711C68.2043 95.022 64.0102 91.7894 59.1652 91.7894Z" fill="#3B3C98"/>
<path d="M151.2 91.7894C146.362 91.7894 142.161 95.022 139.88 99.7711C138.749 102.126 138.052 104.839 138.052 107.753C138.052 116.549 143.949 123.716 151.2 123.716C158.451 123.716 164.348 116.549 164.348 107.753C164.348 104.839 163.657 102.126 162.52 99.7711C160.239 95.022 156.045 91.7894 151.2 91.7894Z" fill="#3B3C98"/>
<path d="M190.644 75.826V67.8443L151.2 54.1558L105.183 19.9542H32.8696V27.9359H72.3131V35.9176H0V43.8993H78.887V51.881H13.1478V59.8627H46.0174V67.8443H32.8696V75.826H6.57391V83.8077H39.4435V91.7894H32.8696V99.7711H13.1478V107.753H39.4435C39.4435 104.943 39.9167 102.277 40.653 99.7711C43.3746 90.4964 50.5928 83.8077 59.1652 83.8077C67.7442 83.8077 74.9558 90.4964 77.6774 99.7711C78.4071 102.277 78.887 104.943 78.887 107.753H131.478C131.478 104.943 131.952 102.277 132.688 99.7711C135.409 90.4964 142.628 83.8077 151.2 83.8077C159.779 83.8077 166.991 90.4964 169.712 99.7711C170.442 102.277 170.922 104.943 170.922 107.753H190.644V99.7711H197.217V75.826H190.644Z" fill="#3B3C98"/>
<path d="M266.208 49.248L260.448 81.024H272.16L266.208 49.248ZM277.344 108L274.272 92.352H258.24L255.168 108H241.44L256.8 40.8H276.192L290.88 108H277.344ZM317.753 107.712C317.049 107.84 315.865 108 314.201 108.192C312.601 108.384 310.873 108.48 309.017 108.48C305.049 108.48 302.297 107.296 300.761 104.928C299.289 102.496 298.553 98.784 298.553 93.792V40.8H311.321V93.312C311.321 94.848 311.513 95.936 311.897 96.576C312.281 97.152 313.081 97.44 314.297 97.44C315.001 97.44 315.673 97.408 316.312 97.344C317.017 97.216 317.497 97.12 317.753 97.056V107.712ZM364.988 80.928C364.988 86.176 364.572 90.592 363.74 94.176C362.972 97.76 361.692 100.64 359.9 102.816C358.172 104.992 355.836 106.56 352.892 107.52C350.012 108.416 346.46 108.864 342.236 108.864C338.78 108.864 335.708 108.704 333.02 108.384C330.396 108.064 328.188 107.776 326.396 107.52V40.8H339.164V62.496C340.508 61.472 342.012 60.672 343.676 60.096C345.404 59.456 347.292 59.136 349.34 59.136C351.964 59.136 354.268 59.52 356.252 60.288C358.236 60.992 359.868 62.176 361.148 63.84C362.428 65.504 363.388 67.744 364.028 70.56C364.668 73.312 364.988 76.768 364.988 80.928ZM345.98 70.08C343.868 70.08 342.204 70.848 340.988 72.384C339.772 73.92 339.164 75.552 339.164 77.28V97.728C339.868 97.792 340.54 97.856 341.18 97.92C341.82 97.92 342.46 97.92 343.1 97.92C344.892 97.92 346.364 97.728 347.516 97.344C348.668 96.896 349.564 96.096 350.204 94.944C350.908 93.728 351.388 92.096 351.644 90.048C351.9 87.936 352.028 85.216 352.028 81.888C352.028 79.456 351.932 77.472 351.74 75.936C351.548 74.4 351.196 73.216 350.684 72.384C350.236 71.488 349.628 70.88 348.86 70.56C348.092 70.24 347.132 70.08 345.98 70.08ZM375.51 51.84V40.8H389.238V51.84H375.51ZM375.99 108V60H388.758V108H375.99ZM401.209 108V60H411.577L412.441 63.744C413.913 62.336 415.609 61.216 417.529 60.384C419.449 59.552 421.593 59.136 423.961 59.136C427.289 59.136 429.945 59.52 431.929 60.288C433.977 61.056 435.545 62.24 436.633 63.84C437.785 65.44 438.553 67.424 438.937 69.792C439.321 72.16 439.513 74.976 439.513 78.24V108H426.745V77.952C426.745 74.752 426.265 72.672 425.305 71.712C424.409 70.688 423.097 70.176 421.369 70.176C418.937 70.176 417.113 70.88 415.897 72.288C414.745 73.696 414.105 75.232 413.977 76.896V108H401.209ZM466.499 52.416V108H453.347V52.416H439.523V40.8H480.323V52.416H466.499ZM481.834 108V60H492.202L493.162 64.32C494.442 62.784 495.914 61.536 497.578 60.576C499.242 59.616 501.098 59.136 503.146 59.136C504.618 59.136 506.09 59.296 507.562 59.616V72.288C506.73 72.096 505.93 71.968 505.162 71.904C504.458 71.776 503.658 71.712 502.762 71.712C501.162 71.712 499.85 72.128 498.826 72.96C497.802 73.728 496.97 74.784 496.33 76.128C495.69 77.408 495.242 78.88 494.986 80.544C494.73 82.208 494.602 83.904 494.602 85.632V108H481.834ZM548.905 108C547.625 108 546.153 107.744 544.489 107.232C542.825 106.72 541.545 105.664 540.649 104.064C539.433 105.536 537.833 106.72 535.849 107.616C533.865 108.448 531.241 108.864 527.977 108.864C525.865 108.864 523.913 108.608 522.121 108.096C520.329 107.584 518.761 106.752 517.417 105.6C516.137 104.384 515.113 102.816 514.345 100.896C513.641 98.912 513.289 96.448 513.289 93.504C513.289 87.68 515.017 83.552 518.473 81.12C521.993 78.688 527.049 77.472 533.641 77.472H537.961V75.456C537.961 73.6 537.481 72.192 536.521 71.232C535.625 70.208 533.961 69.696 531.529 69.696C528.777 69.696 526.217 69.92 523.849 70.368C521.545 70.752 519.177 71.296 516.745 72V61.056C517.641 60.8 518.697 60.576 519.913 60.384C521.129 60.128 522.377 59.904 523.657 59.712C525.001 59.52 526.345 59.392 527.689 59.328C529.097 59.2 530.377 59.136 531.529 59.136C535.625 59.136 538.921 59.488 541.417 60.192C543.913 60.832 545.833 61.856 547.177 63.264C548.585 64.672 549.513 66.464 549.961 68.64C550.473 70.816 550.729 73.376 550.729 76.32V95.328C550.729 96.288 550.985 97.056 551.497 97.632C552.009 98.144 553.001 98.4 554.473 98.4V108H548.905ZM531.625 98.112C532.969 98.112 534.025 97.888 534.793 97.44C535.625 96.928 536.265 96.32 536.713 95.616C537.225 94.912 537.545 94.176 537.673 93.408C537.865 92.576 537.961 91.84 537.961 91.2V86.88H533.161C531.113 86.88 529.449 87.328 528.169 88.224C526.889 89.12 526.249 90.656 526.249 92.832C526.249 94.304 526.633 95.552 527.401 96.576C528.233 97.6 529.641 98.112 531.625 98.112ZM590.741 108.096H572.213L559.733 60.096H573.077L581.621 98.88L590.261 60.096H603.125L590.741 108.096ZM621.416 88.704C621.608 92.224 622.248 94.656 623.336 96C624.488 97.28 626.504 97.92 629.384 97.92C632.072 97.92 634.6 97.76 636.968 97.44C639.4 97.12 641.32 96.8 642.728 96.48V107.232C641.96 107.424 641 107.648 639.848 107.904C638.696 108.096 637.48 108.256 636.2 108.384C634.92 108.512 633.672 108.608 632.456 108.672C631.304 108.8 630.28 108.864 629.384 108.864C625.928 108.864 622.888 108.576 620.264 108C617.64 107.424 615.432 106.24 613.64 104.448C611.912 102.656 610.6 100.16 609.704 96.96C608.872 93.696 608.456 89.376 608.456 84C608.456 79.584 608.872 75.808 609.704 72.672C610.6 69.472 611.88 66.88 613.544 64.896C615.272 62.912 617.352 61.472 619.784 60.576C622.216 59.616 625 59.136 628.136 59.136C631.784 59.136 634.76 59.616 637.064 60.576C639.432 61.536 641.288 62.944 642.632 64.8C643.976 66.592 644.904 68.832 645.416 71.52C645.992 74.208 646.28 77.248 646.28 80.64V88.704H621.416ZM627.944 69.696C625.96 69.696 624.456 70.4 623.432 71.808C622.472 73.216 621.832 75.712 621.512 79.296H633.992V76.8C633.992 74.432 633.512 72.672 632.552 71.52C631.592 70.304 630.056 69.696 627.944 69.696ZM676.065 107.712C675.361 107.84 674.177 108 672.513 108.192C670.913 108.384 669.185 108.48 667.329 108.48C663.361 108.48 660.609 107.296 659.073 104.928C657.601 102.496 656.865 98.784 656.865 93.792V40.8H669.633V93.312C669.633 94.848 669.825 95.936 670.209 96.576C670.593 97.152 671.393 97.44 672.609 97.44C673.313 97.44 673.985 97.408 674.625 97.344C675.329 97.216 675.809 97.12 676.065 97.056V107.712Z" fill="black"/>
</svg>
